<mxfile host="65bd71144e">
    <diagram name="Page-1" id="BEV_N_K4sCaPAyVdjuHi">
        <mxGraphModel dx="1538" dy="564" grid="1" gridSize="10" guides="1" tooltips="1" connect="1" arrows="1" fold="1" page="1" pageScale="1" pageWidth="850" pageHeight="1100" background="none" math="0" shadow="0">
            <root>
                <mxCell id="0"/>
                <mxCell id="1" parent="0"/>
                <mxCell id="mIhtb_WAByD7dWI37VxC-13" value="AWS Region" style="points=[[0,0],[0.25,0],[0.5,0],[0.75,0],[1,0],[1,0.25],[1,0.5],[1,0.75],[1,1],[0.75,1],[0.5,1],[0.25,1],[0,1],[0,0.75],[0,0.5],[0,0.25]];outlineConnect=0;gradientColor=none;html=1;whiteSpace=wrap;fontSize=12;fontStyle=0;container=0;pointerEvents=0;collapsible=0;recursiveResize=0;shape=mxgraph.aws4.group;grIcon=mxgraph.aws4.group_region;strokeColor=#00A4A6;fillColor=none;verticalAlign=top;align=left;spacingLeft=30;fontColor=#147EBA;dashed=1;" parent="1" vertex="1">
                    <mxGeometry y="100" width="730" height="499" as="geometry"/>
                </mxCell>
                <mxCell id="mIhtb_WAByD7dWI37VxC-51" value="&lt;b&gt;&lt;font style=&quot;font-size: 18px;&quot;&gt;Agentic AI with Bedrock Agents&lt;/font&gt;&lt;/b&gt;" style="rounded=0;whiteSpace=wrap;html=1;" parent="1" vertex="1">
                    <mxGeometry x="59" y="30" width="600" height="30" as="geometry"/>
                </mxCell>
                <mxCell id="mIhtb_WAByD7dWI37VxC-10" value="Users" style="verticalLabelPosition=top;sketch=0;html=1;fillColor=#A153A0;strokeColor=#ffffff;verticalAlign=bottom;align=center;points=[[0,0.5,0],[0.125,0.25,0],[0.25,0,0],[0.5,0,0],[0.75,0,0],[0.875,0.25,0],[1,0.5,0],[0.875,0.75,0],[0.75,1,0],[0.5,1,0],[0.125,0.75,0]];pointerEvents=1;shape=mxgraph.cisco_safe.compositeIcon;bgIcon=ellipse;resIcon=mxgraph.cisco_safe.design.users;labelPosition=center;" parent="1" vertex="1">
                    <mxGeometry x="-86" y="200" width="50" height="50" as="geometry"/>
                </mxCell>
                <mxCell id="3" style="edgeStyle=none;html=1;exitX=0.5;exitY=1;exitDx=0;exitDy=0;exitPerimeter=0;" parent="1" source="mIhtb_WAByD7dWI37VxC-10" edge="1">
                    <mxGeometry relative="1" as="geometry">
                        <mxPoint x="-2" y="185" as="sourcePoint"/>
                        <mxPoint x="-61.17706349206355" y="307" as="targetPoint"/>
                    </mxGeometry>
                </mxCell>
                <mxCell id="mIhtb_WAByD7dWI37VxC-12" value="VPC" style="sketch=0;outlineConnect=0;gradientColor=none;html=1;whiteSpace=wrap;fontSize=12;fontStyle=0;shape=mxgraph.aws4.group;grIcon=mxgraph.aws4.group_vpc;strokeColor=#879196;fillColor=none;verticalAlign=top;align=left;spacingLeft=30;fontColor=#879196;dashed=0;" parent="1" vertex="1">
                    <mxGeometry x="10" y="130" width="704" height="451.5" as="geometry"/>
                </mxCell>
                <mxCell id="mIhtb_WAByD7dWI37VxC-45" value="Text to SQL" style="rounded=0;whiteSpace=wrap;html=1;" parent="1" vertex="1">
                    <mxGeometry x="420" y="260" width="70" height="30" as="geometry"/>
                </mxCell>
                <mxCell id="_DLhRzLqX7Xbt8yUZtbc-25" style="edgeStyle=orthogonalEdgeStyle;rounded=0;orthogonalLoop=1;jettySize=auto;html=1;exitX=1;exitY=0.5;exitDx=0;exitDy=0;exitPerimeter=0;" parent="1" source="4" target="_DLhRzLqX7Xbt8yUZtbc-13" edge="1">
                    <mxGeometry relative="1" as="geometry"/>
                </mxCell>
                <mxCell id="62X7Fw03NBtU8NxYTAc2-26" style="edgeStyle=orthogonalEdgeStyle;rounded=0;orthogonalLoop=1;jettySize=auto;html=1;entryX=0;entryY=0.5;entryDx=0;entryDy=0;exitX=0.5;exitY=1;exitDx=0;exitDy=0;exitPerimeter=0;" parent="1" source="4" target="mIhtb_WAByD7dWI37VxC-45" edge="1">
                    <mxGeometry relative="1" as="geometry">
                        <Array as="points">
                            <mxPoint x="274" y="265"/>
                        </Array>
                    </mxGeometry>
                </mxCell>
                <mxCell id="4" value="Query-Generation-Agent" style="sketch=0;points=[[0,0,0],[0.25,0,0],[0.5,0,0],[0.75,0,0],[1,0,0],[0,1,0],[0.25,1,0],[0.5,1,0],[0.75,1,0],[1,1,0],[0,0.25,0],[0,0.5,0],[0,0.75,0],[1,0.25,0],[1,0.5,0],[1,0.75,0]];outlineConnect=0;fontColor=#232F3E;fillColor=#01A88D;strokeColor=#ffffff;dashed=0;verticalLabelPosition=top;verticalAlign=bottom;align=center;html=1;fontSize=12;fontStyle=0;aspect=fixed;shape=mxgraph.aws4.resourceIcon;resIcon=mxgraph.aws4.bedrock;labelPosition=center;" parent="1" vertex="1">
                    <mxGeometry x="250" y="172.5" width="48" height="48" as="geometry"/>
                </mxCell>
                <mxCell id="_DLhRzLqX7Xbt8yUZtbc-29" style="edgeStyle=orthogonalEdgeStyle;rounded=0;orthogonalLoop=1;jettySize=auto;html=1;exitX=0.5;exitY=0;exitDx=0;exitDy=0;exitPerimeter=0;" parent="1" source="_DLhRzLqX7Xbt8yUZtbc-12" target="_DLhRzLqX7Xbt8yUZtbc-13" edge="1">
                    <mxGeometry relative="1" as="geometry">
                        <mxPoint x="646" y="120.5" as="sourcePoint"/>
                        <mxPoint x="366" y="130.5" as="targetPoint"/>
                        <Array as="points">
                            <mxPoint x="645" y="305"/>
                            <mxPoint x="700" y="305"/>
                            <mxPoint x="700" y="140"/>
                            <mxPoint x="355" y="140"/>
                            <mxPoint x="355" y="197"/>
                        </Array>
                    </mxGeometry>
                </mxCell>
                <mxCell id="_DLhRzLqX7Xbt8yUZtbc-13" value="Database Schema KB&lt;div&gt;OpenSearch&lt;/div&gt;" style="sketch=0;outlineConnect=0;fontColor=#232F3E;gradientColor=none;fillColor=#8C4FFF;strokeColor=none;dashed=0;verticalLabelPosition=bottom;verticalAlign=top;align=center;html=1;fontSize=12;fontStyle=0;aspect=fixed;pointerEvents=1;shape=mxgraph.aws4.opensearch_service_data_node;" parent="1" vertex="1">
                    <mxGeometry x="365" y="176.5" width="40" height="40" as="geometry"/>
                </mxCell>
                <mxCell id="_DLhRzLqX7Xbt8yUZtbc-30" style="edgeStyle=orthogonalEdgeStyle;rounded=0;orthogonalLoop=1;jettySize=auto;html=1;exitX=1;exitY=0.5;exitDx=0;exitDy=0;exitPerimeter=0;" parent="1" source="_DLhRzLqX7Xbt8yUZtbc-18" target="_DLhRzLqX7Xbt8yUZtbc-28" edge="1">
                    <mxGeometry relative="1" as="geometry"/>
                </mxCell>
                <mxCell id="_DLhRzLqX7Xbt8yUZtbc-18" value="&lt;span style=&quot;color: rgb(0, 0, 0);&quot;&gt;Database Action&lt;/span&gt;" style="sketch=0;points=[[0,0,0],[0.25,0,0],[0.5,0,0],[0.75,0,0],[1,0,0],[0,1,0],[0.25,1,0],[0.5,1,0],[0.75,1,0],[1,1,0],[0,0.25,0],[0,0.5,0],[0,0.75,0],[1,0.25,0],[1,0.5,0],[1,0.75,0]];outlineConnect=0;fontColor=#232F3E;fillColor=#ED7100;strokeColor=#ffffff;dashed=0;verticalLabelPosition=top;verticalAlign=bottom;align=center;html=1;fontSize=12;fontStyle=0;aspect=fixed;shape=mxgraph.aws4.resourceIcon;resIcon=mxgraph.aws4.lambda;labelPosition=center;" parent="1" vertex="1">
                    <mxGeometry x="520" y="171.5" width="49" height="49" as="geometry"/>
                </mxCell>
                <mxCell id="_DLhRzLqX7Xbt8yUZtbc-28" value="Query-&lt;span style=&quot;background-color: initial;&quot;&gt;Correction-&lt;/span&gt;&lt;span style=&quot;background-color: initial;&quot;&gt;Agent&lt;/span&gt;" style="sketch=0;points=[[0,0,0],[0.25,0,0],[0.5,0,0],[0.75,0,0],[1,0,0],[0,1,0],[0.25,1,0],[0.5,1,0],[0.75,1,0],[1,1,0],[0,0.25,0],[0,0.5,0],[0,0.75,0],[1,0.25,0],[1,0.5,0],[1,0.75,0]];outlineConnect=0;fontColor=#232F3E;fillColor=#01A88D;strokeColor=#ffffff;dashed=0;verticalLabelPosition=bottom;verticalAlign=top;align=center;html=1;fontSize=12;fontStyle=0;aspect=fixed;shape=mxgraph.aws4.resourceIcon;resIcon=mxgraph.aws4.bedrock;" parent="1" vertex="1">
                    <mxGeometry x="620" y="172.5" width="48" height="48" as="geometry"/>
                </mxCell>
                <mxCell id="_DLhRzLqX7Xbt8yUZtbc-33" style="edgeStyle=orthogonalEdgeStyle;rounded=0;orthogonalLoop=1;jettySize=auto;html=1;" parent="1" source="_DLhRzLqX7Xbt8yUZtbc-28" target="_DLhRzLqX7Xbt8yUZtbc-13" edge="1">
                    <mxGeometry relative="1" as="geometry">
                        <Array as="points">
                            <mxPoint x="644" y="150"/>
                            <mxPoint x="385" y="150"/>
                        </Array>
                    </mxGeometry>
                </mxCell>
                <mxCell id="_DLhRzLqX7Xbt8yUZtbc-36" style="edgeStyle=orthogonalEdgeStyle;rounded=0;orthogonalLoop=1;jettySize=auto;html=1;exitX=0.5;exitY=1;exitDx=0;exitDy=0;exitPerimeter=0;entryX=0.5;entryY=0;entryDx=0;entryDy=0;entryPerimeter=0;" parent="1" source="_DLhRzLqX7Xbt8yUZtbc-18" edge="1">
                    <mxGeometry relative="1" as="geometry">
                        <mxPoint x="543.7500000000005" y="311.5" as="targetPoint"/>
                    </mxGeometry>
                </mxCell>
                <mxCell id="_DLhRzLqX7Xbt8yUZtbc-21" style="edgeStyle=orthogonalEdgeStyle;rounded=0;orthogonalLoop=1;jettySize=auto;html=1;" parent="1" source="mIhtb_WAByD7dWI37VxC-14" target="_DLhRzLqX7Xbt8yUZtbc-11" edge="1">
                    <mxGeometry relative="1" as="geometry"/>
                </mxCell>
                <mxCell id="mIhtb_WAByD7dWI37VxC-14" value="Q &amp;amp; A KB&amp;nbsp;&lt;div&gt;S3 Source&lt;/div&gt;" style="sketch=0;points=[[0,0,0],[0.25,0,0],[0.5,0,0],[0.75,0,0],[1,0,0],[0,1,0],[0.25,1,0],[0.5,1,0],[0.75,1,0],[1,1,0],[0,0.25,0],[0,0.5,0],[0,0.75,0],[1,0.25,0],[1,0.5,0],[1,0.75,0]];outlineConnect=0;fontColor=#232F3E;fillColor=#7AA116;strokeColor=#ffffff;dashed=0;verticalLabelPosition=bottom;verticalAlign=top;align=center;html=1;fontSize=12;fontStyle=0;aspect=fixed;shape=mxgraph.aws4.resourceIcon;resIcon=mxgraph.aws4.s3;" parent="1" vertex="1">
                    <mxGeometry x="540" y="439.5" width="50" height="50" as="geometry"/>
                </mxCell>
                <mxCell id="mIhtb_WAByD7dWI37VxC-17" value="RDS" style="sketch=0;points=[[0,0,0],[0.25,0,0],[0.5,0,0],[0.75,0,0],[1,0,0],[0,1,0],[0.25,1,0],[0.5,1,0],[0.75,1,0],[1,1,0],[0,0.25,0],[0,0.5,0],[0,0.75,0],[1,0.25,0],[1,0.5,0],[1,0.75,0]];outlineConnect=0;fontColor=#232F3E;fillColor=#C925D1;strokeColor=#ffffff;dashed=0;verticalLabelPosition=bottom;verticalAlign=top;align=center;html=1;fontSize=12;fontStyle=0;aspect=fixed;shape=mxgraph.aws4.resourceIcon;resIcon=mxgraph.aws4.rds;" parent="1" vertex="1">
                    <mxGeometry x="520" y="311" width="48.5" height="48.5" as="geometry"/>
                </mxCell>
                <mxCell id="mIhtb_WAByD7dWI37VxC-57" value="&lt;h5&gt;Bedrock Model: Claude 3 Haiku&lt;font size=&quot;1&quot;&gt;&lt;br&gt;&lt;/font&gt;&lt;span style=&quot;background-color: initial;&quot;&gt;&lt;font style=&quot;font-size: 10px;&quot;&gt;Embedding:&amp;nbsp;&lt;/font&gt;&lt;/span&gt;&lt;span style=&quot;background-color: initial; font-size: 10px;&quot;&gt;Titan Text Embeddings V2&lt;/span&gt;&lt;/h5&gt;" style="text;html=1;align=left;verticalAlign=middle;whiteSpace=wrap;rounded=0;strokeColor=#d6b656;fillColor=#fff2cc;" parent="1" vertex="1">
                    <mxGeometry x="500" y="540" width="200" height="30" as="geometry"/>
                </mxCell>
                <mxCell id="5" value="Rest-API-Agent" style="sketch=0;points=[[0,0,0],[0.25,0,0],[0.5,0,0],[0.75,0,0],[1,0,0],[0,1,0],[0.25,1,0],[0.5,1,0],[0.75,1,0],[1,1,0],[0,0.25,0],[0,0.5,0],[0,0.75,0],[1,0.25,0],[1,0.5,0],[1,0.75,0]];outlineConnect=0;fontColor=#232F3E;fillColor=#01A88D;strokeColor=#ffffff;dashed=0;verticalLabelPosition=bottom;verticalAlign=top;align=center;html=1;fontSize=12;fontStyle=0;aspect=fixed;shape=mxgraph.aws4.resourceIcon;resIcon=mxgraph.aws4.bedrock;" parent="1" vertex="1">
                    <mxGeometry x="250" y="311.5" width="48" height="48" as="geometry"/>
                </mxCell>
                <mxCell id="_DLhRzLqX7Xbt8yUZtbc-16" style="edgeStyle=orthogonalEdgeStyle;rounded=0;orthogonalLoop=1;jettySize=auto;html=1;exitX=1;exitY=0.5;exitDx=0;exitDy=0;exitPerimeter=0;" parent="1" source="6" target="_DLhRzLqX7Xbt8yUZtbc-11" edge="1">
                    <mxGeometry relative="1" as="geometry"/>
                </mxCell>
                <mxCell id="6" value="KB-&lt;div&gt;Agent&lt;/div&gt;" style="sketch=0;points=[[0,0,0],[0.25,0,0],[0.5,0,0],[0.75,0,0],[1,0,0],[0,1,0],[0.25,1,0],[0.5,1,0],[0.75,1,0],[1,1,0],[0,0.25,0],[0,0.5,0],[0,0.75,0],[1,0.25,0],[1,0.5,0],[1,0.75,0]];outlineConnect=0;fontColor=#232F3E;fillColor=#01A88D;strokeColor=#ffffff;dashed=0;verticalLabelPosition=bottom;verticalAlign=top;align=center;html=1;fontSize=12;fontStyle=0;aspect=fixed;shape=mxgraph.aws4.resourceIcon;resIcon=mxgraph.aws4.bedrock;" parent="1" vertex="1">
                    <mxGeometry x="251" y="440.5" width="48" height="48" as="geometry"/>
                </mxCell>
                <mxCell id="_DLhRzLqX7Xbt8yUZtbc-11" value="Q &amp;amp; A KB&amp;nbsp;&lt;div&gt;OpenSearch&lt;/div&gt;" style="sketch=0;outlineConnect=0;fontColor=#232F3E;gradientColor=none;fillColor=#8C4FFF;strokeColor=none;dashed=0;verticalLabelPosition=bottom;verticalAlign=top;align=center;html=1;fontSize=12;fontStyle=0;aspect=fixed;pointerEvents=1;shape=mxgraph.aws4.opensearch_service_data_node;" parent="1" vertex="1">
                    <mxGeometry x="374" y="444.5" width="40" height="40" as="geometry"/>
                </mxCell>
                <mxCell id="_DLhRzLqX7Xbt8yUZtbc-12" value="Database Schema&lt;div&gt;KB&amp;nbsp;&lt;span style=&quot;background-color: initial;&quot;&gt;S3 Source&lt;/span&gt;&lt;/div&gt;" style="sketch=0;points=[[0,0,0],[0.25,0,0],[0.5,0,0],[0.75,0,0],[1,0,0],[0,1,0],[0.25,1,0],[0.5,1,0],[0.75,1,0],[1,1,0],[0,0.25,0],[0,0.5,0],[0,0.75,0],[1,0.25,0],[1,0.5,0],[1,0.75,0]];outlineConnect=0;fontColor=#232F3E;fillColor=#7AA116;strokeColor=#ffffff;dashed=0;verticalLabelPosition=bottom;verticalAlign=top;align=center;html=1;fontSize=12;fontStyle=0;aspect=fixed;shape=mxgraph.aws4.resourceIcon;resIcon=mxgraph.aws4.s3;" parent="1" vertex="1">
                    <mxGeometry x="620" y="311.5" width="50" height="50" as="geometry"/>
                </mxCell>
                <mxCell id="PNLJHfurZxHp6mNEIcw_-7" style="edgeStyle=orthogonalEdgeStyle;rounded=0;orthogonalLoop=1;jettySize=auto;html=1;exitX=1;exitY=0.5;exitDx=0;exitDy=0;exitPerimeter=0;" parent="1" source="_DLhRzLqX7Xbt8yUZtbc-19" target="PNLJHfurZxHp6mNEIcw_-6" edge="1">
                    <mxGeometry relative="1" as="geometry">
                        <Array as="points">
                            <mxPoint x="470" y="335"/>
                            <mxPoint x="470" y="410"/>
                            <mxPoint x="785" y="410"/>
                        </Array>
                    </mxGeometry>
                </mxCell>
                <mxCell id="_DLhRzLqX7Xbt8yUZtbc-19" value="&lt;span style=&quot;color: rgb(0, 0, 0);&quot;&gt;Rest API Lambda&lt;/span&gt;" style="sketch=0;points=[[0,0,0],[0.25,0,0],[0.5,0,0],[0.75,0,0],[1,0,0],[0,1,0],[0.25,1,0],[0.5,1,0],[0.75,1,0],[1,1,0],[0,0.25,0],[0,0.5,0],[0,0.75,0],[1,0.25,0],[1,0.5,0],[1,0.75,0]];outlineConnect=0;fontColor=#232F3E;fillColor=#ED7100;strokeColor=#ffffff;dashed=0;verticalLabelPosition=bottom;verticalAlign=top;align=center;html=1;fontSize=12;fontStyle=0;aspect=fixed;shape=mxgraph.aws4.resourceIcon;resIcon=mxgraph.aws4.lambda;" parent="1" vertex="1">
                    <mxGeometry x="360.5" y="310.5" width="49" height="49" as="geometry"/>
                </mxCell>
                <mxCell id="_DLhRzLqX7Xbt8yUZtbc-34" style="edgeStyle=orthogonalEdgeStyle;rounded=0;orthogonalLoop=1;jettySize=auto;html=1;exitX=1;exitY=0.5;exitDx=0;exitDy=0;exitPerimeter=0;entryX=0;entryY=0.5;entryDx=0;entryDy=0;entryPerimeter=0;" parent="1" source="5" target="_DLhRzLqX7Xbt8yUZtbc-19" edge="1">
                    <mxGeometry relative="1" as="geometry"/>
                </mxCell>
                <mxCell id="_DLhRzLqX7Xbt8yUZtbc-22" style="edgeStyle=orthogonalEdgeStyle;rounded=0;orthogonalLoop=1;jettySize=auto;html=1;" parent="1" source="mIhtb_WAByD7dWI37VxC-39" target="mIhtb_WAByD7dWI37VxC-14" edge="1">
                    <mxGeometry relative="1" as="geometry"/>
                </mxCell>
                <mxCell id="mIhtb_WAByD7dWI37VxC-39" value="&lt;div&gt;&lt;br&gt;&lt;/div&gt;&lt;div&gt;&lt;span style=&quot;background-color: initial;&quot;&gt;Corporate data center&lt;/span&gt;&lt;br&gt;&lt;/div&gt;" style="points=[[0,0],[0.25,0],[0.5,0],[0.75,0],[1,0],[1,0.25],[1,0.5],[1,0.75],[1,1],[0.75,1],[0.5,1],[0.25,1],[0,1],[0,0.75],[0,0.5],[0,0.25]];outlineConnect=0;gradientColor=none;html=1;whiteSpace=wrap;fontSize=12;fontStyle=0;container=1;pointerEvents=0;collapsible=0;recursiveResize=0;shape=mxgraph.aws4.group;grIcon=mxgraph.aws4.group_corporate_data_center;strokeColor=#7D8998;fillColor=none;verticalAlign=top;align=left;spacingLeft=30;fontColor=#5A6C86;dashed=0;" parent="1" vertex="1">
                    <mxGeometry x="740" y="439.5" width="90" height="139.37" as="geometry"/>
                </mxCell>
                <mxCell id="62X7Fw03NBtU8NxYTAc2-6" value="Orchestrator-Agent" style="sketch=0;points=[[0,0,0],[0.25,0,0],[0.5,0,0],[0.75,0,0],[1,0,0],[0,1,0],[0.25,1,0],[0.5,1,0],[0.75,1,0],[1,1,0],[0,0.25,0],[0,0.5,0],[0,0.75,0],[1,0.25,0],[1,0.5,0],[1,0.75,0]];outlineConnect=0;fontColor=#232F3E;fillColor=#01A88D;strokeColor=#ffffff;dashed=0;verticalLabelPosition=bottom;verticalAlign=top;align=center;html=1;fontSize=12;fontStyle=0;aspect=fixed;shape=mxgraph.aws4.resourceIcon;resIcon=mxgraph.aws4.bedrock;" parent="1" vertex="1">
                    <mxGeometry x="40" y="312.5" width="48" height="48" as="geometry"/>
                </mxCell>
                <mxCell id="62X7Fw03NBtU8NxYTAc2-15" style="edgeStyle=orthogonalEdgeStyle;rounded=0;orthogonalLoop=1;jettySize=auto;html=1;exitX=1;exitY=0.5;exitDx=0;exitDy=0;exitPerimeter=0;" parent="1" source="62X7Fw03NBtU8NxYTAc2-29" target="62X7Fw03NBtU8NxYTAc2-6" edge="1">
                    <mxGeometry relative="1" as="geometry">
                        <mxPoint x="-32.45999999999981" y="336" as="sourcePoint"/>
                    </mxGeometry>
                </mxCell>
                <mxCell id="62X7Fw03NBtU8NxYTAc2-12" style="edgeStyle=orthogonalEdgeStyle;rounded=0;orthogonalLoop=1;jettySize=auto;html=1;entryX=0;entryY=0.5;entryDx=0;entryDy=0;entryPerimeter=0;" parent="1" source="62X7Fw03NBtU8NxYTAc2-16" target="4" edge="1">
                    <mxGeometry relative="1" as="geometry">
                        <Array as="points">
                            <mxPoint x="120" y="197.5"/>
                        </Array>
                    </mxGeometry>
                </mxCell>
                <mxCell id="62X7Fw03NBtU8NxYTAc2-14" style="edgeStyle=orthogonalEdgeStyle;rounded=0;orthogonalLoop=1;jettySize=auto;html=1;entryX=0;entryY=0.5;entryDx=0;entryDy=0;entryPerimeter=0;" parent="1" source="62X7Fw03NBtU8NxYTAc2-18" target="5" edge="1">
                    <mxGeometry relative="1" as="geometry"/>
                </mxCell>
                <mxCell id="62X7Fw03NBtU8NxYTAc2-16" value="&lt;span style=&quot;color: rgb(0, 0, 0);&quot;&gt;Invoke DB A&lt;/span&gt;&lt;span style=&quot;color: rgb(0, 0, 0); background-color: initial;&quot;&gt;gent Action&lt;/span&gt;" style="sketch=0;points=[[0,0,0],[0.25,0,0],[0.5,0,0],[0.75,0,0],[1,0,0],[0,1,0],[0.25,1,0],[0.5,1,0],[0.75,1,0],[1,1,0],[0,0.25,0],[0,0.5,0],[0,0.75,0],[1,0.25,0],[1,0.5,0],[1,0.75,0]];outlineConnect=0;fontColor=#232F3E;fillColor=#ED7100;strokeColor=#ffffff;dashed=0;verticalLabelPosition=bottom;verticalAlign=top;align=center;html=1;fontSize=12;fontStyle=0;aspect=fixed;shape=mxgraph.aws4.resourceIcon;resIcon=mxgraph.aws4.lambda;" parent="1" vertex="1">
                    <mxGeometry x="140" y="171.5" width="49" height="49" as="geometry"/>
                </mxCell>
                <mxCell id="62X7Fw03NBtU8NxYTAc2-20" value="&lt;span style=&quot;color: rgb(0, 0, 0);&quot;&gt;Invoke&lt;/span&gt;&lt;div&gt;&lt;span style=&quot;color: rgb(0, 0, 0);&quot;&gt;KB Agent Action&lt;/span&gt;&lt;/div&gt;" style="sketch=0;points=[[0,0,0],[0.25,0,0],[0.5,0,0],[0.75,0,0],[1,0,0],[0,1,0],[0.25,1,0],[0.5,1,0],[0.75,1,0],[1,1,0],[0,0.25,0],[0,0.5,0],[0,0.75,0],[1,0.25,0],[1,0.5,0],[1,0.75,0]];outlineConnect=0;fontColor=#232F3E;fillColor=#ED7100;strokeColor=#ffffff;dashed=0;verticalLabelPosition=bottom;verticalAlign=top;align=center;html=1;fontSize=12;fontStyle=0;aspect=fixed;shape=mxgraph.aws4.resourceIcon;resIcon=mxgraph.aws4.lambda;" parent="1" vertex="1">
                    <mxGeometry x="140" y="440" width="49" height="49" as="geometry"/>
                </mxCell>
                <mxCell id="62X7Fw03NBtU8NxYTAc2-22" style="edgeStyle=orthogonalEdgeStyle;rounded=0;orthogonalLoop=1;jettySize=auto;html=1;exitX=0.5;exitY=0;exitDx=0;exitDy=0;exitPerimeter=0;entryX=0;entryY=0.5;entryDx=0;entryDy=0;entryPerimeter=0;" parent="1" source="62X7Fw03NBtU8NxYTAc2-6" target="62X7Fw03NBtU8NxYTAc2-16" edge="1">
                    <mxGeometry relative="1" as="geometry"/>
                </mxCell>
                <mxCell id="62X7Fw03NBtU8NxYTAc2-23" value="" style="edgeStyle=orthogonalEdgeStyle;rounded=0;orthogonalLoop=1;jettySize=auto;html=1;entryX=0;entryY=0.5;entryDx=0;entryDy=0;entryPerimeter=0;" parent="1" source="62X7Fw03NBtU8NxYTAc2-6" target="62X7Fw03NBtU8NxYTAc2-18" edge="1">
                    <mxGeometry relative="1" as="geometry">
                        <mxPoint x="88" y="337" as="sourcePoint"/>
                        <mxPoint x="216" y="337" as="targetPoint"/>
                    </mxGeometry>
                </mxCell>
                <mxCell id="62X7Fw03NBtU8NxYTAc2-18" value="&lt;span style=&quot;color: rgb(0, 0, 0);&quot;&gt;Invoke&amp;nbsp;&lt;/span&gt;&lt;div&gt;&lt;span style=&quot;color: rgb(0, 0, 0);&quot;&gt;API Agent Action&lt;/span&gt;&lt;/div&gt;" style="sketch=0;points=[[0,0,0],[0.25,0,0],[0.5,0,0],[0.75,0,0],[1,0,0],[0,1,0],[0.25,1,0],[0.5,1,0],[0.75,1,0],[1,1,0],[0,0.25,0],[0,0.5,0],[0,0.75,0],[1,0.25,0],[1,0.5,0],[1,0.75,0]];outlineConnect=0;fontColor=#232F3E;fillColor=#ED7100;strokeColor=#ffffff;dashed=0;verticalLabelPosition=bottom;verticalAlign=top;align=center;html=1;fontSize=12;fontStyle=0;aspect=fixed;shape=mxgraph.aws4.resourceIcon;resIcon=mxgraph.aws4.lambda;" parent="1" vertex="1">
                    <mxGeometry x="140" y="311.5" width="49" height="49" as="geometry"/>
                </mxCell>
                <mxCell id="62X7Fw03NBtU8NxYTAc2-24" style="edgeStyle=orthogonalEdgeStyle;rounded=0;orthogonalLoop=1;jettySize=auto;html=1;entryX=0;entryY=0.5;entryDx=0;entryDy=0;entryPerimeter=0;" parent="1" source="62X7Fw03NBtU8NxYTAc2-6" target="62X7Fw03NBtU8NxYTAc2-20" edge="1">
                    <mxGeometry relative="1" as="geometry">
                        <Array as="points">
                            <mxPoint x="64" y="465"/>
                            <mxPoint x="114" y="465"/>
                        </Array>
                    </mxGeometry>
                </mxCell>
                <mxCell id="62X7Fw03NBtU8NxYTAc2-25" style="edgeStyle=orthogonalEdgeStyle;rounded=0;orthogonalLoop=1;jettySize=auto;html=1;entryX=0;entryY=0.5;entryDx=0;entryDy=0;entryPerimeter=0;" parent="1" source="62X7Fw03NBtU8NxYTAc2-20" target="6" edge="1">
                    <mxGeometry relative="1" as="geometry"/>
                </mxCell>
                <mxCell id="62X7Fw03NBtU8NxYTAc2-28" style="edgeStyle=orthogonalEdgeStyle;rounded=0;orthogonalLoop=1;jettySize=auto;html=1;entryX=0;entryY=0.5;entryDx=0;entryDy=0;entryPerimeter=0;" parent="1" source="mIhtb_WAByD7dWI37VxC-45" target="_DLhRzLqX7Xbt8yUZtbc-18" edge="1">
                    <mxGeometry relative="1" as="geometry">
                        <Array as="points">
                            <mxPoint x="460" y="196"/>
                        </Array>
                    </mxGeometry>
                </mxCell>
                <mxCell id="62X7Fw03NBtU8NxYTAc2-29" value="Streamlit GUI" style="outlineConnect=0;dashed=0;verticalLabelPosition=bottom;verticalAlign=top;align=center;html=1;shape=mxgraph.aws3.workspaces;fillColor=#D16A28;gradientColor=#F58435;gradientDirection=north;" parent="1" vertex="1">
                    <mxGeometry x="-88.61" y="304.38" width="55.22" height="63.25" as="geometry"/>
                </mxCell>
                <mxCell id="PNLJHfurZxHp6mNEIcw_-6" value="External API" style="sketch=0;pointerEvents=1;shadow=0;dashed=0;html=1;strokeColor=none;fillColor=#DF8C42;labelPosition=center;verticalLabelPosition=top;verticalAlign=bottom;align=center;outlineConnect=0;shape=mxgraph.veeam2.restful_api;" parent="1" vertex="1">
                    <mxGeometry x="755" y="300" width="60" height="56" as="geometry"/>
                </mxCell>
            </root>
        </mxGraphModel>
    </diagram>
</mxfile>